<svg width="32" height="32" viewBox="0 0 32 32" fill="none" xmlns="http://www.w3.org/2000/svg">
<path d="M6.09688 16.3964C6.03229 15.9327 6 15.4689 6 15.0051C6 14.3572 6.06458 13.7127 6.19375 13.0716C6.32291 12.4305 6.52025 11.8031 6.78575 11.1893C7.04408 10.5823 7.37058 9.99915 7.76525 9.4399C8.15274 8.88065 8.60841 8.3555 9.13224 7.86445C9.64172 7.38704 10.1871 6.97101 10.7683 6.61637C11.3496 6.2549 11.9559 5.95482 12.5874 5.71611C13.2117 5.47741 13.8539 5.30008 14.5141 5.18414C15.1671 5.06138 15.8273 5 16.4946 5C17.1763 5 17.8544 5.06138 18.529 5.18414C19.1963 5.3069 19.8493 5.49446 20.488 5.7468C21.1194 5.99233 21.7294 6.30264 22.3178 6.67775C22.9062 7.04603 23.4587 7.47911 23.9754 7.97698C24.4777 8.46121 24.919 8.97954 25.2993 9.53197C25.6725 10.0912 25.9882 10.6675 26.2465 11.2609C26.4977 11.861 26.6879 12.4748 26.817 13.1023C26.939 13.7366 27 14.3708 27 15.0051C27 15.653 26.9354 16.2941 26.8063 16.9284C26.6771 17.5695 26.4833 18.1935 26.225 18.8005C25.9595 19.4075 25.633 19.9906 25.2455 20.5499C24.8508 21.1091 24.3916 21.6343 23.8678 22.1253C23.3583 22.6027 22.8129 23.0188 22.2317 23.3734C21.6433 23.728 21.0369 24.0213 20.4126 24.2532C19.7883 24.4919 19.1461 24.6692 18.4859 24.7852C17.8257 24.9079 17.1656 24.9693 16.5054 24.9693L16.5054 29L10.7253 23.5064L16.4946 18.0128L16.4946 21.9821C17.4346 21.9821 18.3496 21.8184 19.2394 21.491C20.1292 21.1637 20.9329 20.6624 21.6504 19.9872C22.3824 19.2984 22.9313 18.5209 23.2973 17.6547C23.6632 16.7886 23.8462 15.902 23.8462 14.9949C23.8462 14.1014 23.674 13.2285 23.3296 12.376C22.978 11.5303 22.4469 10.7664 21.7365 10.0844C21.3778 9.73657 20.9938 9.42967 20.5848 9.16368C20.1686 8.90452 19.7381 8.68627 19.2932 8.50895C18.8411 8.33845 18.3819 8.20886 17.9154 8.1202C17.4418 8.03836 16.9682 7.99744 16.4946 7.99744C15.5546 7.99744 14.6433 8.16112 13.7606 8.48849C12.8708 8.82268 12.0636 9.32737 11.3388 10.0026C10.9728 10.3436 10.6535 10.7119 10.3808 11.1074C10.1082 11.503 9.88211 11.9122 9.70272 12.335C9.51615 12.7579 9.37622 13.1944 9.28293 13.6445C9.18965 14.0946 9.143 14.5448 9.143 14.9949C9.143 15.4518 9.19323 15.919 9.2937 16.3964L6.09688 16.3964Z" fill="black"/>
</svg>
