<svg width="32" height="32" viewBox="0 0 32 32" fill="none" xmlns="http://www.w3.org/2000/svg">
<path d="M8.57266 16.2973C8.52422 15.9495 8.5 15.6017 8.5 15.2538C8.5 14.7679 8.54844 14.2845 8.64531 13.8037C8.74218 13.3229 8.89019 12.8523 9.08931 12.3919C9.28306 11.9367 9.52793 11.4994 9.82394 11.0799C10.1146 10.6605 10.4563 10.2666 10.8492 9.89834C11.2313 9.54028 11.6403 9.22826 12.0762 8.96228C12.5122 8.69118 12.9669 8.46611 13.4405 8.28708C13.9088 8.10806 14.3904 7.97506 14.8856 7.88811C15.3753 7.79603 15.8705 7.75 16.371 7.75C16.8822 7.75 17.3908 7.79603 17.8967 7.88811C18.3972 7.98018 18.887 8.12084 19.366 8.3101C19.8396 8.49424 20.297 8.72698 20.7383 9.00831C21.1797 9.28453 21.5941 9.60933 21.9815 9.98274C22.3583 10.3459 22.6893 10.7347 22.9745 11.149C23.2544 11.5684 23.4912 12.0006 23.6849 12.4457C23.8733 12.8958 24.0159 13.3561 24.1128 13.8267C24.2043 14.3024 24.25 14.7781 24.25 15.2538C24.25 15.7398 24.2016 16.2206 24.1047 16.6963C24.0078 17.1771 23.8625 17.6451 23.6688 18.1004C23.4696 18.5556 23.2248 18.993 22.9341 19.4124C22.6381 19.8318 22.2937 20.2257 21.9008 20.594C21.5187 20.952 21.1097 21.2641 20.6738 21.5301C20.2324 21.796 19.7777 22.016 19.3095 22.1899C18.8412 22.3689 18.3596 22.5019 17.8644 22.5889C17.3693 22.6809 16.8742 22.727 16.379 22.727L16.379 25.75L12.044 21.6298L16.371 17.5096L16.371 20.4866C17.076 20.4866 17.7622 20.3638 18.4295 20.1183C19.0969 19.8728 19.6996 19.4968 20.2378 18.9904C20.7868 18.4738 21.1985 17.8907 21.473 17.241C21.7474 16.5914 21.8847 15.9265 21.8847 15.2462C21.8847 14.5761 21.7555 13.9214 21.4972 13.282C21.2335 12.6477 20.8352 12.0748 20.3024 11.5633C20.0333 11.3024 19.7454 11.0722 19.4386 10.8728C19.1265 10.6784 18.8036 10.5147 18.4699 10.3817C18.1308 10.2538 17.7864 10.1566 17.4366 10.0902C17.0814 10.0288 16.7262 9.99808 16.371 9.99808C15.6659 9.99808 14.9824 10.1208 14.3205 10.3664C13.6531 10.617 13.0477 10.9955 12.5041 11.5019C12.2296 11.7577 11.9901 12.0339 11.7856 12.3306C11.5811 12.6272 11.4116 12.9341 11.277 13.2513C11.1371 13.5684 11.0322 13.8958 10.9622 14.2334C10.8922 14.571 10.8573 14.9086 10.8573 15.2462C10.8573 15.5889 10.8949 15.9393 10.9703 16.2973L8.57266 16.2973Z" fill="black"/>
</svg>
